<?xml version="1.0" standalone="no"?><!DOCTYPE svg PUBLIC "-//W3C//DTD SVG 1.1//EN" "http://www.w3.org/Graphics/SVG/1.1/DTD/svg11.dtd"><svg t="1780551931393" class="icon" viewBox="0 0 1024 1024" version="1.1" xmlns="http://www.w3.org/2000/svg" p-id="6819" xmlns:xlink="http://www.w3.org/1999/xlink" width="20" height="20"><path d="M822.613333 342.954667a38.826667 38.826667 0 0 0-5.333333-6.528l51.413333-51.669334a5.12 5.12 0 0 0-3.072-8.533333l-198.656-22.144a5.12 5.12 0 0 0-5.674666 5.674667l22.101333 199.594666a5.12 5.12 0 0 0 8.533333 3.029334l67.541334-67.84a289.194667 289.194667 0 0 1 42.666666 151.125333 290.645333 290.645333 0 0 1-290.133333 290.133333 290.645333 290.645333 0 0 1-290.133333-290.133333 290.688 290.688 0 0 1 149.973333-254.208 40.234667 40.234667 0 0 0 15.701333-54.698667 40.277333 40.277333 0 0 0-54.698666-15.744 371.2 371.2 0 0 0-191.488 324.650667 371.2 371.2 0 0 0 370.816 370.773333 371.2 371.2 0 0 0 370.816-370.773333 369.28 369.28 0 0 0-60.373334-202.709333z" fill="#272E3B" p-id="6820"></path><path d="M517.12 588.458667a46.933333 46.933333 0 0 0 46.677333-46.72V154.453333a46.933333 46.933333 0 0 0-46.677333-46.72 46.933333 46.933333 0 0 0-46.933333 46.72v387.285334a46.933333 46.933333 0 0 0 46.933333 46.72z" fill="#272E3B" p-id="6821"></path></svg>